<svg height="122" width="182" xmlns="http://www.w3.org/2000/svg" xmlns:xlink="http://www.w3.org/1999/xlink"><mask id="a" fill="#fff"><path d="m.571 2.159c0-1.103.899-1.999 2.003-1.999h148.887a2 2 0 0 1 2.003 1.998v184.315h-152.894v-184.313z" fill="#fff" fill-rule="evenodd"/></mask><mask id="b" fill="#fff"><path d="m.571 2.159c0-1.103.899-1.999 2.003-1.999h148.887a2 2 0 0 1 2.003 1.998v184.315h-152.894v-184.313z" fill="#fff" fill-rule="evenodd"/></mask><mask id="c" fill="#fff"><path d="m.571 2.159c0-1.103.899-1.999 2.003-1.999h148.887a2 2 0 0 1 2.003 1.998v184.315h-152.894v-184.313z" fill="#fff" fill-rule="evenodd"/></mask><mask id="d" fill="#fff"><path d="m.571 2.159c0-1.103.899-1.999 2.003-1.999h148.887a2 2 0 0 1 2.003 1.998v184.315h-152.894v-184.313z" fill="#fff" fill-rule="evenodd"/></mask><mask id="e" fill="#fff"><path d="m.571 2.159c0-1.103.899-1.999 2.003-1.999h148.887a2 2 0 0 1 2.003 1.998v184.315h-152.894v-184.313z" fill="#fff" fill-rule="evenodd"/></mask><mask id="f" fill="#fff"><path d="m.571 2.159c0-1.103.899-1.999 2.003-1.999h148.887a2 2 0 0 1 2.003 1.998v184.315h-152.894v-184.313z" fill="#fff" fill-rule="evenodd"/></mask><mask id="g" fill="#fff"><path d="m.571 2.159c0-1.103.899-1.999 2.003-1.999h148.887a2 2 0 0 1 2.003 1.998v184.315h-152.894v-184.313z" fill="#fff" fill-rule="evenodd"/></mask><mask id="h" fill="#fff"><path d="m.571 2.159c0-1.103.899-1.999 2.003-1.999h148.887a2 2 0 0 1 2.003 1.998v184.315h-152.894v-184.313z" fill="#fff" fill-rule="evenodd"/></mask><mask id="i" fill="#fff"><path d="m.571 2.159c0-1.103.899-1.999 2.003-1.999h148.887a2 2 0 0 1 2.003 1.998v184.315h-152.894v-184.313z" fill="#fff" fill-rule="evenodd"/></mask><mask id="j" fill="#fff"><path d="m.571 2.159c0-1.103.899-1.999 2.003-1.999h148.887a2 2 0 0 1 2.003 1.998v184.315h-152.894v-184.313z" fill="#fff" fill-rule="evenodd"/></mask><mask id="k" fill="#fff"><path d="m.571 2.159c0-1.103.899-1.999 2.003-1.999h148.887a2 2 0 0 1 2.003 1.998v184.315h-152.894v-184.313z" fill="#fff" fill-rule="evenodd"/></mask><mask id="l" fill="#fff"><path d="m.571 2.159c0-1.103.899-1.999 2.003-1.999h148.887a2 2 0 0 1 2.003 1.998v184.315h-152.894v-184.313z" fill="#fff" fill-rule="evenodd"/></mask><mask id="m" fill="#fff"><path d="m.571 2.159c0-1.103.899-1.999 2.003-1.999h148.887a2 2 0 0 1 2.003 1.998v184.315h-152.894v-184.313z" fill="#fff" fill-rule="evenodd"/></mask><mask id="n" fill="#fff"><path d="m.571 2.159c0-1.103.899-1.999 2.003-1.999h148.887a2 2 0 0 1 2.003 1.998v184.315h-152.894v-184.313z" fill="#fff" fill-rule="evenodd"/></mask><g fill="none" fill-rule="evenodd" opacity=".2"><path d="m147.368 9.834-40.745 40.746c-6.136 6.135-6.136 16.082 0 22.217l40.747 40.747c6.133 6.133 16.075 6.133 22.208 0l40.747-40.747c6.136-6.135 6.136-16.082 0-22.217l-40.745-40.746c-6.133-6.133-16.077-6.133-22.21 0z" mask="url(#a)" stroke="#8097b1" stroke-linecap="round" stroke-linejoin="round" transform="matrix(0 -1 1 0 -5 154)"/><path d="m95.514 124.648 31.48-31.48 31.48 31.48-31.48 31.48z" mask="url(#b)" stroke="#8097b1" stroke-linecap="round" stroke-linejoin="round" transform="matrix(0 -1 1 0 -5 154)"/><path d="m32.562 140.348-.008 47.26 62.96-62.96-47.24-.008c-8.677 0-15.712 7.031-15.712 15.708z" mask="url(#c)" stroke="#8097b1" stroke-linecap="round" stroke-linejoin="round" transform="matrix(0 -1 1 0 -5 154)"/><path d="m124.9 124.648a2.093 2.093 0 1 1 4.187-.001 2.093 2.093 0 0 1 -4.187.001" fill="#8097b1" fill-rule="nonzero" mask="url(#d)" transform="matrix(0 -1 1 0 -5 154)"/><path d="m124.9 124.648a2.093 2.093 0 1 1 4.187-.001 2.093 2.093 0 0 1 -4.187.001z" mask="url(#e)" stroke="#8097b1" stroke-linecap="round" stroke-linejoin="round" transform="matrix(0 -1 1 0 -5 154)"/><path d="m93.42 187.608a2.094 2.094 0 1 1 4.188 0 2.094 2.094 0 0 1 -4.188 0" fill="#8097b1" fill-rule="nonzero" mask="url(#f)" transform="matrix(0 -1 1 0 -5 154)"/><g stroke="#8097b1" stroke-linecap="round" stroke-linejoin="round"><path d="m95.514 187.608 31.48-31.48" mask="url(#g)" transform="matrix(0 -1 1 0 -5 154)"/><path d="m64.035 156.127h63.265" mask="url(#h)" stroke-dasharray="0 3" transform="matrix(0 -1 1 0 -5 154)"/><path d="m68.532 151.63h54.227" mask="url(#i)" stroke-dasharray="0 3" transform="matrix(0 -1 1 0 -5 154)"/><path d="m73.03 147.133h45.187" mask="url(#j)" stroke-dasharray="0 3" transform="matrix(0 -1 1 0 -5 154)"/><path d="m77.526 142.636h36.15" mask="url(#k)" stroke-dasharray="0 3" transform="matrix(0 -1 1 0 -5 154)"/><path d="m85.036 138.139h22.594" mask="url(#l)" stroke-dasharray="0 3.013" transform="matrix(0 -1 1 0 -5 154)"/><path d="m89.533 133.642h13.556" mask="url(#m)" stroke-dasharray="0 3.013" transform="matrix(0 -1 1 0 -5 154)"/><path d="m94.03 129.145h4.52" mask="url(#n)" stroke-dasharray="0 3.013" transform="matrix(0 -1 1 0 -5 154)"/></g></g></svg>