<svg height="64" width="131" xmlns="http://www.w3.org/2000/svg"><g fill="none" fill-rule="evenodd" opacity=".2" stroke="#8097b1"><path d="m67.208.086-62.96 62.96h62.96l62.96-62.96"/><path d="m67.208.086 31.48 31.48 31.48-31.48m-125.92 3.314-2.748 2.748m2.748 3.879-2.748 2.748m2.748 3.879-2.748 2.75m2.748 3.878-2.748 2.748m2.748 3.88-2.748 2.746m2.748 3.88-2.748 2.75m2.748 3.878-2.748 2.748m2.748 3.879-2.748 2.75m2.748 3.878-2.748 2.748m9.376-55.767-2.75 2.748m2.75 3.879-2.75 2.748m2.75 3.879-2.75 2.75m2.75 3.878-2.75 2.748m2.75 3.88-2.75 2.747m2.75 3.879-2.75 2.75m2.75 3.878-2.75 2.748m2.75 3.879-2.75 2.75m2.75 3.878-2.75 2.748m9.377-55.767-2.748 2.748m2.748 3.879-2.748 2.748m2.748 3.879-2.748 2.75m2.748 3.878-2.748 2.748m2.748 3.88-2.748 2.747m2.748 3.879-2.748 2.75m2.748 3.878-2.748 2.748m2.748 3.879-2.748 2.75m9.375-49.141-2.749 2.748m2.749 3.879-2.749 2.748m2.749 3.879-2.749 2.75m2.749 3.878-2.749 2.748m2.749 3.88-2.749 2.747m2.749 3.879-2.749 2.75m2.749 3.878-2.749 2.748m9.376-42.512-2.749 2.748m2.749 3.879-2.749 2.748m2.749 3.879-2.749 2.75m2.749 3.878-2.749 2.748m2.749 3.88-2.749 2.747m2.749 3.879-2.749 2.75m9.377-35.886-2.749 2.748m2.749 3.879-2.749 2.748m2.749 3.879-2.749 2.75m2.749 3.878-2.749 2.748m2.749 3.88-2.749 2.747m9.376-29.257-2.749 2.748m2.749 3.879-2.749 2.748m2.749 3.879-2.749 2.75m2.749 3.878-2.749 2.748m9.377-22.63-2.75 2.748m2.75 3.879-2.75 2.748m2.75 3.879-2.75 2.75m9.377-16.004-2.749 2.748m2.749 3.879-2.749 2.748m9.376-9.375-2.748 2.749"/></g></svg>